<svg xmlns="http://www.w3.org/2000/svg" xml:space="preserve" width="2.66666in" height="2.66666in" version="1.1" style="shape-rendering:geometricPrecision; text-rendering:geometricPrecision; image-rendering:optimizeQuality; fill-rule:evenodd; clip-rule:evenodd"
viewBox="0 0 2667 2667"
 xmlns:xlink="http://www.w3.org/1999/xlink">
 <defs>
  <style type="text/css">
   <![CDATA[
    .fil5 {fill:#7DD63E}
    .fil1 {fill:transparent;}
    .fil0 {fill:transparent;}
    .fil6 {fill:#FF3131}
    .fil7 {fill:#FF6A6A}
    .fil3 {fill:#FFAD62}
    .fil4 {fill:#FFC06D}
    .fil2 {fill:#FFCC89}
   ]]>
  </style>
 </defs>
 <g id="_290721720">
  <circle class="fil0" cx="1333" cy="1333" r="1333"/>
  <path class="fil1" d="M2503 1095c0,736 -597,1333 -1333,1333 -405,0 -768,-181 -1013,-466 225,420 667,705 1176,705 737,0 1334,-597 1334,-1334 0,-331 -121,-634 -321,-867 100,187 157,401 157,629z"/>
 </g>
 <g id="Layer_x0020_1">
  <metadata id="CorelCorpID_0Corel-Layer"/>
  <path class="fil2" d="M837 1751l-129 0c-13,0 -23,-10 -23,-23l0 -226c0,-13 10,-24 23,-24l129 0c13,0 23,11 23,24l0 226c0,13 -10,23 -23,23zm1122 0l-242 0c-10,0 -18,-5 -22,-14 -3,-9 -1,-19 5,-26l227 -226c4,-4 10,-7 16,-7l16 0c12,0 23,11 23,24l0 226c0,13 -11,23 -23,23zm-553 0l-197 0c-13,0 -23,-10 -23,-23l0 -197c0,-10 6,-18 14,-22 9,-3 19,-2 26,5l197 197c7,7 9,17 5,26 -4,9 -12,14 -22,14z"/>
  <path class="fil3" d="M1708 2186l-750 0c-236,0 -428,-192 -428,-429 0,-29 23,-52 52,-52l255 0c13,0 23,10 23,23l0 71c0,38 31,70 70,70 38,0 69,-32 69,-70 0,-13 11,-23 24,-23 13,0 23,10 23,23l0 168c0,39 31,70 70,70 38,0 70,-31 70,-70l0 -239c0,-13 10,-23 23,-23l197 0c7,0 12,2 17,6l139 139 138 -139c5,-4 11,-6 17,-6l368 0c28,0 52,23 52,52 0,237 -192,429 -429,429z"/>
  <path class="fil4" d="M1116 2084c-64,0 -116,-52 -116,-117l0 -75c-20,15 -44,23 -70,23 -64,0 -117,-52 -117,-116l0 -297c0,-13 11,-24 24,-24l372 0c13,0 23,11 23,24l0 465c0,65 -52,117 -116,117z"/>
  <path class="fil5" d="M1562 1907c-7,0 -12,-3 -17,-7l-381 -382c-7,-6 -9,-16 -5,-25 4,-9 12,-15 21,-15l763 0c10,0 18,6 22,15 3,9 1,19 -5,25l-382 382c-4,4 -10,7 -16,7z"/>
  <path class="fil6" d="M1959 1525l-1251 0c-98,0 -178,-80 -178,-178 0,-99 80,-179 178,-179l1251 0c98,0 178,80 178,179 0,98 -80,178 -178,178z"/>
  <path class="fil7" d="M1658 1370l-649 0c-13,0 -23,-10 -23,-23 0,-13 10,-24 23,-24l649 0c13,0 23,11 23,24 0,13 -10,23 -23,23z"/>
  <path class="fil3" d="M2044 1215l-1421 0c-51,0 -93,-42 -93,-94 0,-353 287,-640 640,-640l327 0c353,0 640,287 640,640 0,52 -42,94 -93,94z"/>
  <path class="fil2" d="M709 1122c-13,0 -23,-11 -23,-24l0 -15c0,-13 10,-24 23,-24 13,0 23,11 23,24l0 15c0,13 -10,24 -23,24z"/>
  <path class="fil2" d="M834 1122c-13,0 -23,-11 -23,-24l0 -15c0,-13 10,-24 23,-24 13,0 23,11 23,24l0 15c0,13 -10,24 -23,24z"/>
  <path class="fil2" d="M959 1122c-13,0 -24,-11 -24,-24l0 -15c0,-13 11,-24 24,-24 13,0 23,11 23,24l0 15c0,13 -10,24 -23,24z"/>
  <path class="fil2" d="M1084 1122c-13,0 -24,-11 -24,-24l0 -15c0,-13 11,-24 24,-24 12,0 23,11 23,24l0 15c0,13 -11,24 -23,24z"/>
  <path class="fil2" d="M1208 1122c-12,0 -23,-11 -23,-24l0 -15c0,-13 11,-24 23,-24 13,0 24,11 24,24l0 15c0,13 -11,24 -24,24z"/>
  <path class="fil2" d="M1333 1122c-13,0 -23,-11 -23,-24l0 -15c0,-13 10,-24 23,-24 13,0 24,11 24,24l0 15c0,13 -11,24 -24,24z"/>
  <path class="fil2" d="M1458 1122c-13,0 -23,-11 -23,-24l0 -15c0,-13 10,-24 23,-24 13,0 24,11 24,24l0 15c0,13 -11,24 -24,24z"/>
  <path class="fil2" d="M1583 1122c-13,0 -23,-11 -23,-24l0 -15c0,-13 10,-24 23,-24 13,0 23,11 23,24l0 15c0,13 -10,24 -23,24z"/>
  <path class="fil2" d="M1708 1122c-13,0 -23,-11 -23,-24l0 -15c0,-13 10,-24 23,-24 13,0 23,11 23,24l0 15c0,13 -10,24 -23,24z"/>
  <path class="fil2" d="M1833 1122c-13,0 -23,-11 -23,-24l0 -15c0,-13 10,-24 23,-24 13,0 23,11 23,24l0 15c0,13 -10,24 -23,24z"/>
  <path class="fil2" d="M1958 1122c-13,0 -24,-11 -24,-24l0 -15c0,-13 11,-24 24,-24 13,0 23,11 23,24l0 15c0,13 -10,24 -23,24z"/>
  <path class="fil2" d="M709 1000c-13,0 -23,-10 -23,-23l0 -16c0,-12 10,-23 23,-23 13,0 23,11 23,23l0 16c0,13 -10,23 -23,23z"/>
  <path class="fil2" d="M834 1000c-13,0 -23,-10 -23,-23l0 -16c0,-12 10,-23 23,-23 13,0 23,11 23,23l0 16c0,13 -10,23 -23,23z"/>
  <path class="fil2" d="M959 1000c-13,0 -24,-10 -24,-23l0 -16c0,-12 11,-23 24,-23 13,0 23,11 23,23l0 16c0,13 -10,23 -23,23z"/>
  <path class="fil2" d="M1084 1000c-13,0 -24,-10 -24,-23l0 -16c0,-12 11,-23 24,-23 12,0 23,11 23,23l0 16c0,13 -11,23 -23,23z"/>
  <path class="fil2" d="M1208 1000c-12,0 -23,-10 -23,-23l0 -16c0,-12 11,-23 23,-23 13,0 24,11 24,23l0 16c0,13 -11,23 -24,23z"/>
  <path class="fil2" d="M1333 1000c-13,0 -23,-10 -23,-23l0 -16c0,-12 10,-23 23,-23 13,0 24,11 24,23l0 16c0,13 -11,23 -24,23z"/>
  <path class="fil2" d="M1458 1000c-13,0 -23,-10 -23,-23l0 -16c0,-12 10,-23 23,-23 13,0 24,11 24,23l0 16c0,13 -11,23 -24,23z"/>
  <path class="fil2" d="M1583 1000c-13,0 -23,-10 -23,-23l0 -16c0,-12 10,-23 23,-23 13,0 23,11 23,23l0 16c0,13 -10,23 -23,23z"/>
  <path class="fil2" d="M1708 1000c-13,0 -23,-10 -23,-23l0 -16c0,-12 10,-23 23,-23 13,0 23,11 23,23l0 16c0,13 -10,23 -23,23z"/>
  <path class="fil2" d="M1833 1000c-13,0 -23,-10 -23,-23l0 -16c0,-12 10,-23 23,-23 13,0 23,11 23,23l0 16c0,13 -10,23 -23,23z"/>
  <path class="fil2" d="M1958 1000c-13,0 -24,-10 -24,-23l0 -16c0,-12 11,-23 24,-23 13,0 23,11 23,23l0 16c0,13 -10,23 -23,23z"/>
  <path class="fil2" d="M834 879c-13,0 -23,-10 -23,-23l0 -16c0,-13 10,-23 23,-23 13,0 23,10 23,23l0 15c0,14 -10,24 -23,24z"/>
  <path class="fil2" d="M959 879c-13,0 -24,-10 -24,-23l0 -16c0,-13 11,-23 24,-23 13,0 23,10 23,23l0 15c0,14 -10,24 -23,24z"/>
  <path class="fil2" d="M1084 879c-13,0 -24,-10 -24,-23l0 -16c0,-13 11,-23 24,-23 12,0 23,10 23,23l0 15c0,14 -11,24 -23,24z"/>
  <path class="fil2" d="M1208 879c-12,0 -23,-10 -23,-23l0 -16c0,-13 11,-23 23,-23 13,0 24,10 24,23l0 15c0,14 -11,24 -24,24z"/>
  <path class="fil2" d="M1333 879c-13,0 -23,-10 -23,-23l0 -16c0,-13 10,-23 23,-23 13,0 24,10 24,23l0 15c0,14 -11,24 -24,24z"/>
  <path class="fil2" d="M1458 879c-13,0 -23,-10 -23,-23l0 -16c0,-13 10,-23 23,-23 13,0 24,10 24,23l0 15c0,14 -11,24 -24,24z"/>
  <path class="fil2" d="M1583 879c-13,0 -23,-10 -23,-23l0 -16c0,-13 10,-23 23,-23 13,0 23,10 23,23l0 15c0,14 -10,24 -23,24z"/>
  <path class="fil2" d="M1708 879c-13,0 -23,-10 -23,-23l0 -16c0,-13 10,-23 23,-23 13,0 23,10 23,23l0 15c0,14 -10,24 -23,24z"/>
  <path class="fil2" d="M1833 879c-13,0 -23,-10 -23,-23l0 -16c0,-13 10,-23 23,-23 13,0 23,10 23,23l0 15c0,14 -10,24 -23,24z"/>
  <path class="fil2" d="M959 758c-13,0 -24,-11 -24,-24l0 -15c0,-13 11,-24 24,-24 13,0 23,11 23,24l0 15c0,13 -10,24 -23,24z"/>
  <path class="fil2" d="M1084 758c-13,0 -24,-11 -24,-24l0 -15c0,-13 11,-24 24,-24 12,0 23,11 23,24l0 15c0,13 -11,24 -23,24z"/>
  <path class="fil2" d="M1208 758c-12,0 -23,-11 -23,-24l0 -15c0,-13 11,-24 23,-24 13,0 24,11 24,24l0 15c0,13 -11,24 -24,24z"/>
  <path class="fil2" d="M1333 758c-13,0 -23,-11 -23,-24l0 -15c0,-13 10,-24 23,-24 13,0 24,11 24,24l0 15c0,13 -11,24 -24,24z"/>
  <path class="fil2" d="M1458 758c-13,0 -23,-11 -23,-24l0 -15c0,-13 10,-24 23,-24 13,0 24,11 24,24l0 15c0,13 -11,24 -24,24z"/>
  <path class="fil2" d="M1583 758c-13,0 -23,-11 -23,-24l0 -15c0,-13 10,-24 23,-24 13,0 23,11 23,24l0 15c0,13 -10,24 -23,24z"/>
  <path class="fil2" d="M1708 758c-13,0 -23,-11 -23,-24l0 -15c0,-13 10,-24 23,-24 13,0 23,11 23,24l0 15c0,13 -10,24 -23,24z"/>
  <path class="fil2" d="M1084 636c-13,0 -24,-10 -24,-23l0 -16c0,-13 11,-23 24,-23 12,0 23,10 23,23l0 16c0,13 -11,23 -23,23z"/>
  <path class="fil2" d="M1208 636c-12,0 -23,-10 -23,-23l0 -16c0,-13 11,-23 23,-23 13,0 24,10 24,23l0 16c0,13 -11,23 -24,23z"/>
  <path class="fil2" d="M1333 636c-13,0 -23,-10 -23,-23l0 -16c0,-13 10,-23 23,-23 13,0 24,10 24,23l0 16c0,13 -11,23 -24,23z"/>
  <path class="fil2" d="M1458 636c-13,0 -23,-10 -23,-23l0 -16c0,-13 10,-23 23,-23 13,0 24,10 24,23l0 16c0,13 -11,23 -24,23z"/>
  <path class="fil2" d="M1583 636c-13,0 -23,-10 -23,-23l0 -16c0,-13 10,-23 23,-23 13,0 23,10 23,23l0 16c0,13 -10,23 -23,23z"/>
 </g>
</svg>